<svg width="32" height="25" viewBox="0 0 32 25" fill="none" xmlns="http://www.w3.org/2000/svg">
<path d="M27.0894 2.54081C25.0498 1.60496 22.8626 0.915475 20.5759 0.520577C20.5342 0.512956 20.4926 0.532002 20.4712 0.570096C20.1899 1.07038 19.8783 1.72305 19.6601 2.23604C17.2005 1.86781 14.7536 1.86781 12.3444 2.23604C12.1262 1.71164 11.8033 1.07038 11.5208 0.570096C11.4993 0.533273 11.4577 0.514227 11.4161 0.520577C9.13055 0.914214 6.94341 1.6037 4.90258 2.54081C4.88491 2.54842 4.86977 2.56113 4.85972 2.57763C0.711189 8.77544 -0.425267 14.8209 0.13224 20.7914C0.134763 20.8206 0.15116 20.8486 0.173864 20.8664C2.91095 22.8764 5.56228 24.0967 8.16437 24.9055C8.20602 24.9182 8.25014 24.903 8.27664 24.8687C8.89217 24.0281 9.44086 23.1418 9.9113 22.2098C9.93906 22.1552 9.91256 22.0904 9.85582 22.0688C8.98551 21.7387 8.1568 21.3362 7.35964 20.8791C7.29659 20.8422 7.29154 20.7521 7.34954 20.7089C7.5173 20.5832 7.68509 20.4524 7.84527 20.3203C7.87425 20.2962 7.91464 20.2911 7.94871 20.3064C13.1857 22.6974 18.8554 22.6974 24.0306 20.3064C24.0647 20.2899 24.1051 20.2949 24.1353 20.3191C24.2955 20.4511 24.4633 20.5832 24.6323 20.7089C24.6903 20.7521 24.6865 20.8422 24.6235 20.8791C23.8263 21.345 22.9976 21.7387 22.126 22.0676C22.0693 22.0892 22.044 22.1552 22.0718 22.2098C22.5523 23.1405 23.101 24.0268 23.7052 24.8674C23.7304 24.903 23.7758 24.9182 23.8175 24.9055C26.4322 24.0967 29.0835 22.8764 31.8206 20.8664C31.8446 20.8486 31.8597 20.8219 31.8622 20.7927C32.5294 13.8901 30.7447 7.89423 27.131 2.57889C27.1221 2.56113 27.107 2.54842 27.0894 2.54081ZM10.6934 17.156C9.11666 17.156 7.81751 15.7085 7.81751 13.9308C7.81751 12.1531 9.09147 10.7055 10.6934 10.7055C12.3078 10.7055 13.5944 12.1658 13.5692 13.9308C13.5692 15.7085 12.2952 17.156 10.6934 17.156ZM21.3263 17.156C19.7497 17.156 18.4505 15.7085 18.4505 13.9308C18.4505 12.1531 19.7244 10.7055 21.3263 10.7055C22.9408 10.7055 24.2274 12.1658 24.2022 13.9308C24.2022 15.7085 22.9408 17.156 21.3263 17.156Z" fill="white" fill-opacity="0.4"/>
</svg>
