<svg xmlns="http://www.w3.org/2000/svg" width="134" height="29" viewBox="0 0 134 29" fill="none">
  <rect x="3.94141" y="8.29736" width="15.7647" height="3.94118" rx="1.97059" fill="#D3E8BA"/>
  <rect x="51.2344" y="8.29736" width="15.7647" height="3.94118" rx="1.97059" fill="#D3E8BA"/>
  <rect x="43.3535" y="8.29736" width="19.7059" height="3.94118" rx="1.97059" transform="rotate(90 43.3535 8.29736)" fill="#D3E8BA"/>
  <rect x="126.117" y="8.29736" width="19.7059" height="3.94118" rx="1.97059" transform="rotate(90 126.117 8.29736)" fill="#D3E8BA"/>
  <rect x="3.94141" y="24.0621" width="15.7647" height="3.94118" rx="1.97059" fill="#D3E8BA"/>
  <rect x="51.2344" y="24.0621" width="15.7647" height="3.94118" rx="1.97059" fill="#D3E8BA"/>
  <rect x="27.5879" y="16.1797" width="11.8235" height="3.94118" rx="1.97059" transform="rotate(90 27.5879 16.1797)" fill="#D3E8BA"/>
  <rect x="110.354" y="16.1797" width="11.8235" height="3.94118" rx="1.97059" transform="rotate(90 110.354 16.1797)" fill="#D3E8BA"/>
  <rect x="70.9414" y="8.29736" width="15.7647" height="3.94118" rx="1.97059" fill="#D3E8BA"/>
  <rect x="3.94141" y="12.2385" width="11.8235" height="3.94118" rx="1.97059" transform="rotate(90 3.94141 12.2385)" fill="#D3E8BA"/>
  <rect x="51.2344" y="12.2385" width="11.8235" height="3.94118" rx="1.97059" transform="rotate(90 51.2344 12.2385)" fill="#D3E8BA"/>
  <rect x="43.3535" y="12.2385" width="19.7059" height="3.94118" rx="1.97059" transform="rotate(-180 43.3535 12.2385)" fill="#D3E8BA"/>
  <rect x="126.117" y="12.2385" width="19.7059" height="3.94118" rx="1.97059" transform="rotate(-180 126.117 12.2385)" fill="#D3E8BA"/>
  <rect x="43.3535" y="20.1269" width="19.7059" height="3.94118" rx="1.97059" transform="rotate(-180 43.3535 20.1269)" fill="#D3E8BA"/>
  <rect x="126.117" y="20.1269" width="19.7059" height="3.94118" rx="1.97059" transform="rotate(-180 126.117 20.1269)" fill="#D3E8BA"/>
  <rect x="43.3535" y="28.0092" width="19.7059" height="3.94118" rx="1.97059" transform="rotate(-180 43.3535 28.0092)" fill="#D3E8BA"/>
  <rect x="126.117" y="28.0092" width="19.7059" height="3.94118" rx="1.97059" transform="rotate(-180 126.117 28.0092)" fill="#D3E8BA"/>
  <rect x="80.6953" y="8.29736" width="19.7059" height="3.94118" rx="1.97059" transform="rotate(90 80.6953 8.29736)" fill="#D3E8BA"/>
  <rect x="80.6953" y="0.414978" width="19.7059" height="3.94118" rx="1.97059" transform="rotate(90 80.6953 0.414978)" fill="#D3E8BA"/>
  <rect x="94.5879" y="0.414978" width="3.94118" height="3.94118" rx="1.97059" transform="rotate(90 94.5879 0.414978)" fill="#D3E8BA"/>
  <rect x="94.5879" y="8.29733" width="19.7059" height="3.94118" rx="1.97059" transform="rotate(90 94.5879 8.29733)" fill="#D3E8BA"/>
  <rect x="134" y="0.414978" width="3.94118" height="3.94118" rx="1.97059" transform="rotate(90 134 0.414978)" fill="#D3E8BA"/>
  <rect x="134" y="8.29736" width="19.7059" height="3.94118" rx="1.97059" transform="rotate(90 134 8.29736)" fill="#D3E8BA"/>
  <rect x="102.471" y="24.0621" width="3.94118" height="3.94118" rx="1.97059" transform="rotate(90 102.471 24.0621)" fill="#D3E8BA"/>
</svg>