<svg xmlns="http://www.w3.org/2000/svg" width="100" height="59" viewBox="0 0 100 59" fill="none">
  <g clip-path="url(#clip0_1056_28677)">
    <path d="M100 0H0V58.884H100V0Z" fill="#031016"/>
    <path d="M71.1376 -34.7461L45.9176 8.93591L20.6976 -34.7461H71.1376ZM71.1376 24.1379L45.9176 67.8179L20.6976 24.1379H71.1376ZM121.138 -5.3041L95.9176 38.3779L70.6976 -5.3041H121.138ZM121.138 53.5779L95.9176 97.2619L70.6976 53.5779H121.138ZM54.1816 53.5779L79.3996 9.8999L104.62 53.5799L54.1816 53.5779ZM21.1376 -5.3041L-4.08236 38.3779L-29.3024 -5.3041H21.1376ZM21.1376 53.5779L-4.08236 97.2619L-29.3024 53.5779H21.1376ZM-45.8184 53.5779L-20.6004 9.8999L4.61964 53.5799L-45.8184 53.5779ZM4.18164 24.1379L29.3996 -19.5461L54.6196 24.1379H4.18164ZM4.18164 83.0199L29.3996 39.3399L54.6196 83.0219L4.18164 83.0199Z" stroke="#2D8B86"/>
  </g>
  <defs>
    <clipPath id="clip0_1056_28677">
      <rect width="100" height="58.884" fill="white"/>
    </clipPath>
  </defs>
</svg>